<svg width="62" height="62" viewBox="0 0 62 62" fill="none" xmlns="http://www.w3.org/2000/svg">
<circle cx="31" cy="31" r="31" fill="#0A141E"/>
<path d="M12.375 27.2455C12.2917 27.532 12.1094 28.1284 11.8281 29.0346C11.5521 29.9409 11.3177 30.6648 11.125 31.2065L9.30469 36.394H7.76562L5.94531 31.2065C5.73177 30.5971 5.49219 29.8549 5.22656 28.9799C4.96094 28.0997 4.78385 27.5216 4.69531 27.2455L4.21875 31.2065L3.53125 36.7143H2.07031L3.51562 25.3862H5.41406L7.46094 31.3705C7.52344 31.5737 7.59896 31.8028 7.6875 32.058C7.77604 32.3133 7.86719 32.5919 7.96094 32.894C8.21615 33.7065 8.40885 34.2976 8.53906 34.6674C8.66927 34.2924 8.85938 33.7013 9.10938 32.894C9.20312 32.5971 9.29427 32.3211 9.38281 32.0659C9.47135 31.8054 9.54688 31.5737 9.60938 31.3705L11.6562 25.3862H13.5625L15 36.7143H13.5469L12.8594 31.2065L12.375 27.2455ZM53.2969 33.433L52.1719 36.7143H50.625L54.5234 25.3862H56.4453L60.4922 36.7143H58.9922L57.8203 33.433H53.2969ZM55.4688 26.9721L53.7578 32.0737H57.3438L55.5703 26.9721H55.4688Z" fill="#313754"/>
<path d="M18.7969 30.1049H23.4688V31.4643H18.7969V35.3549H24.1719V36.7143H17.2578V25.3862H24V26.7455H18.7969V30.1049Z" fill="#FF5921"/>
<path d="M27.75 36.7143H26.2109V25.3862H29.5547C30.8776 25.3862 31.8828 25.6726 32.5703 26.2455C33.263 26.8133 33.6094 27.6362 33.6094 28.7143C33.6094 29.4799 33.4245 30.1231 33.0547 30.644C32.6849 31.1596 32.1484 31.5398 31.4453 31.7846L34.0234 36.7143H32.25L29.8438 32.058H27.75V36.7143ZM29.5547 30.6987C31.1901 30.6987 32.0078 30.0372 32.0078 28.7143C32.0078 28.0528 31.8073 27.5606 31.4062 27.2377C31.0052 26.9096 30.388 26.7455 29.5547 26.7455H27.75V30.6987H29.5547Z" fill="#F9773E"/>
<path d="M36.0078 25.3862H37.5469V36.7143H36.0078V25.3862Z" fill="#72C5CC"/>
<path d="M44.1875 25.3862C45.9479 25.3862 47.2943 25.8705 48.2266 26.8393C49.1641 27.8028 49.6328 29.1961 49.6328 31.019C49.6328 32.8419 49.1589 34.2481 48.2109 35.2377C47.2682 36.2221 45.9271 36.7143 44.1875 36.7143H40.5234V25.3862H44.1875ZM44.1875 35.3549C45.4375 35.3549 46.3906 34.9877 47.0469 34.2534C47.7031 33.5138 48.0312 32.4356 48.0312 31.019C48.0312 29.6231 47.7057 28.5633 47.0547 27.8393C46.4036 27.1101 45.4479 26.7455 44.1875 26.7455H42.0625V35.3549H44.1875Z" fill="#FFE8C6"/>
<path d="M11.421 11.347L13.8333 12.9434" stroke="#F5F5F5"/>
<path d="M12.3145 13.225L13.8333 10.6896" stroke="#F5F5F5"/>
<path d="M12.0464 12.6917L13.8683 11.6287" stroke="#F5F5F5"/>
<path d="M47.3158 44.2711L49.7281 45.8675" stroke="white"/>
<path d="M48.2092 46.1492L49.7281 43.6138" stroke="white"/>
<path d="M47.9412 45.6159L49.7631 44.5528" stroke="white"/>
<path d="M29.7763 55.3883L32.1886 56.9847" stroke="white"/>
<path d="M30.6698 57.2664L32.1887 54.731" stroke="white"/>
<path d="M30.4017 56.7331L32.2237 55.6701" stroke="white"/>
<path d="M46.5 18.1884L48.9123 19.7847" stroke="#F5F5F5"/>
<path d="M47.3934 20.0665L48.9123 17.531" stroke="#F5F5F5"/>
<path d="M47.1254 19.5331L48.9473 18.4701" stroke="#F5F5F5"/>
<path d="M8.97369 43.8436L11.386 45.4399" stroke="white"/>
<path d="M9.86713 45.7216L11.386 43.1862" stroke="white"/>
<path d="M9.59912 45.1883L11.4211 44.1253" stroke="white"/>
<ellipse cx="33.6513" cy="43.4" rx="0.203947" ry="0.213793" fill="white"/>
<ellipse cx="9.99338" cy="19.0276" rx="0.203947" ry="0.213793" fill="white"/>
<ellipse cx="27.9408" cy="16.0345" rx="0.203947" ry="0.213793" fill="#FFF2E7"/>
<ellipse cx="43.4408" cy="7.48278" rx="0.203947" ry="0.213793" fill="#FFF2E7"/>
<ellipse cx="16.5197" cy="52.3793" rx="0.203947" ry="0.213793" fill="white"/>
<ellipse cx="44.2566" cy="51.9517" rx="0.203947" ry="0.213793" fill="white"/>
</svg>
