<svg width="468" height="91" viewBox="0 0 468 91" fill="none" xmlns="http://www.w3.org/2000/svg">
<path d="M82.5 15.25C81.8333 17.5417 80.375 22.3125 78.125 29.5625C75.9167 36.8125 74.0417 42.6042 72.5 46.9375L57.9375 88.4375H45.625L31.0625 46.9375C29.3542 42.0625 27.4375 36.125 25.3125 29.125C23.1875 22.0833 21.7708 17.4583 21.0625 15.25L17.25 46.9375L11.75 91H0.0625L11.625 0.375H26.8125L43.1875 48.25C43.6875 49.875 44.2917 51.7083 45 53.75C45.7083 55.7917 46.4375 58.0208 47.1875 60.4375C49.2292 66.9375 50.7708 71.6667 51.8125 74.625C52.8542 71.625 54.375 66.8958 56.375 60.4375C57.125 58.0625 57.8542 55.8542 58.5625 53.8125C59.2708 51.7292 59.875 49.875 60.375 48.25L76.75 0.375H92L103.5 91H91.875L86.375 46.9375L82.5 15.25ZM409.875 64.75L400.875 91H388.5L419.688 0.375H435.062L467.438 91H455.438L446.062 64.75H409.875ZM427.25 13.0625L413.562 53.875H442.25L428.062 13.0625H427.25Z" fill="#313754"/>
<path d="M133.875 38.125H171.25V49H133.875V80.125H176.875V91H121.562V0.375H175.5V11.25H133.875V38.125Z" fill="#FF5921"/>
<path d="M205.5 91H193.188V0.375H219.938C230.521 0.375 238.562 2.66667 244.062 7.25C249.604 11.7917 252.375 18.375 252.375 27C252.375 33.125 250.896 38.2708 247.938 42.4375C244.979 46.5625 240.688 49.6042 235.062 51.5625L255.688 91H241.5L222.25 53.75H205.5V91ZM219.938 42.875C233.021 42.875 239.562 37.5833 239.562 27C239.562 21.7083 237.958 17.7708 234.75 15.1875C231.542 12.5625 226.604 11.25 219.938 11.25H205.5V42.875H219.938Z" fill="#F9773E"/>
<path d="M271.562 0.375H283.875V91H271.562V0.375Z" fill="#72C5CC"/>
<path d="M337 0.375C351.083 0.375 361.854 4.25 369.312 12C376.812 19.7083 380.562 30.8542 380.562 45.4375C380.562 60.0208 376.771 71.2708 369.188 79.1875C361.646 87.0625 350.917 91 337 91H307.688V0.375H337ZM337 80.125C347 80.125 354.625 77.1875 359.875 71.3125C365.125 65.3958 367.75 56.7708 367.75 45.4375C367.75 34.2708 365.146 25.7917 359.938 20C354.729 14.1667 347.083 11.25 337 11.25H320V80.125H337Z" fill="#FFE8C6"/>
</svg>
